<svg width="184" height="205" viewBox="0 0 184 205" fill="none" xmlns="http://www.w3.org/2000/svg">
<g clip-path="url(#clip0_9_49)">
<path d="M159.142 112.605L111.409 101.358C108.456 100.662 105.411 102.497 104.69 105.56L97.7951 134.82C97.6242 135.546 97.4722 136.191 97.3013 136.916C95.9943 141.033 94.0943 143.733 91.4035 145.141C88.0399 146.901 84.4824 147.339 80.5712 146.417C76.66 145.496 73.6722 143.515 71.4483 140.439C69.4069 137.661 69.0034 133.652 70.238 128.412L84.5021 67.8764C85.7557 62.5563 87.8875 59.2299 90.9546 57.6554C94.3181 55.8955 97.8756 55.4575 101.787 56.3791C105.698 57.3007 108.686 59.2809 110.91 62.3574C112.951 65.1357 113.355 69.1445 112.12 74.384L109.746 84.4599C109.043 87.4423 110.849 90.5054 113.882 91.2201L142.298 97.9158C145.252 98.6117 148.296 96.7766 149.018 93.7135L151.392 83.6376C153.462 74.8514 153.746 66.4952 152.327 58.9289C150.909 51.3626 148.125 44.5808 144.259 38.8201C144.198 38.7207 144.198 38.7207 144.137 38.6213C140.055 33.0648 135.086 28.4057 129.392 24.6817C123.637 20.8582 117.517 18.2251 111.211 16.7392C104.826 15.2346 98.1742 14.8584 91.4164 15.6484C84.5788 16.4196 78.1138 18.4697 72.1393 21.6564C65.8683 25.0284 60.2513 29.9159 55.6037 36.0528C50.8762 42.1709 47.4793 49.7936 45.409 58.5798L31.1829 118.954C29.0176 128.144 28.7147 136.581 30.2513 144.004C31.7878 151.428 34.6279 157.968 38.7716 163.624C42.6379 169.385 47.4884 174.186 53.2624 177.929C58.9566 181.653 65.0764 184.286 71.462 185.791C77.8477 187.296 84.4992 187.672 91.1772 186.863C98.0149 186.092 104.579 183.98 110.77 180.589C116.843 177.341 122.244 172.657 126.914 166.781C131.231 161.332 134.457 154.435 136.634 146.269C136.653 146.189 136.672 146.108 136.691 146.027C136.71 145.947 136.71 145.947 136.729 145.866C136.767 145.705 136.786 145.624 136.824 145.463L150.633 148.717C153.586 149.413 156.63 147.578 157.352 144.515L163.316 119.204C163.92 116.283 162.095 113.301 159.142 112.605Z" fill="#009FE3"/>
<path d="M31.9462 57.7899L43.4404 60.4982C46.2341 61.1565 49.0807 59.445 49.7645 56.5431L56.5261 27.847C57.1909 25.0258 55.5067 22.1615 52.6332 21.4844L41.139 18.7761C38.3453 18.1178 35.4987 19.8293 34.8149 22.7312L28.0343 51.5079C27.3695 54.3292 29.0727 57.1128 31.9462 57.7899Z" fill="#E94E1B"/>
<path d="M148.804 85.325L160.298 88.0334C163.092 88.6916 165.938 86.9801 166.622 84.0782L173.384 55.3821C174.048 52.5609 172.364 49.6966 169.491 49.0195L157.996 46.3112C155.203 45.6529 152.356 47.3644 151.672 50.2663L144.892 79.043C144.227 81.8643 146.01 84.6667 148.804 85.325Z" fill="#E94E1B"/>
<path d="M5.10849 171.688L16.6027 174.396C19.3964 175.054 22.243 173.343 22.9268 170.441L29.7074 141.664C30.3722 138.843 28.688 135.979 25.8145 135.302L14.3203 132.593C11.5266 131.935 8.67998 133.647 7.99621 136.548L1.21555 165.325C0.531785 168.227 2.23495 171.011 5.10849 171.688Z" fill="#E94E1B"/>
<path d="M121.966 199.223L133.46 201.931C136.254 202.589 139.1 200.878 139.784 197.976L146.565 169.199C147.23 166.378 145.545 163.514 142.672 162.837L131.178 160.128C128.384 159.47 125.537 161.182 124.854 164.083L118.073 192.86C117.389 195.762 119.172 198.564 121.966 199.223Z" fill="#E94E1B"/>
<path d="M88.1346 116.464C98.1857 118.832 108.273 112.524 110.664 102.373C113.056 92.2233 106.847 82.0751 96.7957 79.7068C86.7446 77.3385 76.6577 83.6468 74.2661 93.797C71.8744 103.947 78.0836 114.095 88.1346 116.464Z" fill="#FFED00"/>
<path d="M72.7086 100.407L69.3561 99.6168C64.8064 98.5447 62.0083 93.9716 63.0909 89.377L69.9286 60.3585L81.5026 63.0857L72.7086 100.407Z" fill="#FFED00"/>
<path d="M107.75 108.663L111.102 109.453C115.652 110.526 120.198 107.683 121.28 103.088L128.118 74.0696L116.544 71.3424L107.75 108.663Z" fill="#FFED00"/>
<path d="M93.3872 86.3058L91.2321 85.798L83.4637 118.766L85.6189 119.274L93.3872 86.3058Z" fill="white"/>
<path d="M97.937 87.3779L95.7819 86.8701L88.0135 119.838L90.1687 120.346L97.937 87.3779Z" fill="white"/>
<path d="M85.6862 82.8747C88.4568 81.4855 92.193 81.0046 96.1042 81.9262C99.9356 82.829 103.163 84.8656 105.003 87.4263L105.687 84.5244C103.828 82.0444 100.566 80.5102 96.655 79.5886C92.8236 78.6858 89.0646 78.9061 86.2939 80.2952L85.6862 82.8747Z" fill="#009FE3"/>
<path d="M79.1991 61.7771C80.1831 59.0311 81.1218 57.5506 86.3899 58.792C87.3206 54.8422 85.6667 51.1343 81.8353 50.2315C78.0039 49.3287 74.0704 51.7201 73.1397 55.6698C72.8738 56.7983 71.8441 59.0231 72.0951 60.1032L79.1991 61.7771Z" fill="white"/>
<path d="M120.387 71.4821C120.732 68.5857 120.553 66.8419 115.285 65.6005C116.216 61.6508 119.351 59.0713 123.182 59.9741C127.014 60.8769 129.466 64.7729 128.535 68.7227C128.269 69.8512 128.197 72.3016 127.491 73.1561L120.387 71.4821Z" fill="white"/>
<path d="M101.996 53.7056C106.933 54.869 111.412 53.7912 111.999 51.2982C112.587 48.8051 109.06 45.841 104.123 44.6776C99.1855 43.5143 94.7068 44.5921 94.1194 47.0851C93.5319 49.5781 97.0583 52.5422 101.996 53.7056Z" stroke="white" stroke-width="2.9413" stroke-miterlimit="10"/>
<path d="M102.698 50.7232C104.373 51.1179 105.893 50.7522 106.092 49.9064C106.292 49.0605 105.095 48.0548 103.42 47.6601C101.745 47.2654 100.225 47.6311 100.026 48.4769C99.8267 49.3228 101.023 50.3285 102.698 50.7232Z" fill="white"/>
<path d="M105.639 45.035L103.245 44.4708L102.181 48.9848L104.576 49.549L105.639 45.035Z" fill="white"/>
<path d="M110.105 123.342C105.622 142.365 91.8572 155.373 79.4052 152.439C66.9532 149.504 60.5235 131.739 65.006 112.715" fill="#E94E1B"/>
</g>
<defs>
<clipPath id="clip0_9_49">
<rect width="147.12" height="175.153" fill="white" transform="translate(40.1711) rotate(13.2588)"/>
</clipPath>
</defs>
</svg>
