<svg xmlns="http://www.w3.org/2000/svg" viewBox="0 0 28 28"><g id="Capa_2" data-name="Capa 2"><g id="Capa_1-2" data-name="Capa 1"><g id="INSTAGRAM"><g id="Instagram-2"><path d="M18,7.4H10A2.59,2.59,0,0,0,7.4,10v8A2.59,2.59,0,0,0,10,20.6h8A2.59,2.59,0,0,0,20.6,18V10A2.59,2.59,0,0,0,18,7.4ZM14,18a4,4,0,1,1,4-4A4,4,0,0,1,14,18Zm4.25-7.28a1,1,0,1,1,1-1A1,1,0,0,1,18.25,10.72Z"/><path d="M14,11.4A2.6,2.6,0,1,0,16.6,14,2.59,2.59,0,0,0,14,11.4Z"/><path d="M14,0A14,14,0,1,0,28,14,14,14,0,0,0,14,0Zm8,18a4,4,0,0,1-4,4H10a4,4,0,0,1-4-4V10a4,4,0,0,1,4-4h8a4,4,0,0,1,4,4Z"/></g></g></g></g></svg>