<svg width="89" height="129" viewBox="0 0 89 129" fill="none" xmlns="http://www.w3.org/2000/svg">
<path d="M83.0139 79.7881C81.886 77.4381 80.4197 75.4239 78.7279 73.7453C78.7279 73.7453 78.7279 73.7453 78.6151 73.7453C76.8104 72.1786 74.7802 71.0596 72.5244 70.2762C70.2686 69.4929 68.0128 69.0453 65.7569 69.0453C63.5011 69.0453 61.2453 69.4929 58.9895 70.2762C56.7337 71.0596 54.7035 72.2905 53.0116 73.7453C51.2069 75.312 49.6279 77.4381 48.6128 79.7881C47.4849 82.1381 46.9209 84.9358 46.9209 88.0691V109.107C46.9209 112.352 47.4849 115.15 48.6128 117.5C49.7407 119.85 51.2069 121.752 53.0116 123.319C54.8162 124.886 56.8465 126.117 58.9895 126.9C61.2453 127.683 63.5011 128.131 65.7569 128.131C68.0128 128.131 70.2686 127.683 72.5244 126.9C74.7802 126.117 76.8104 124.886 78.6151 123.319C80.4197 121.752 81.886 119.85 82.9011 117.5C84.029 115.15 84.593 112.352 84.593 109.107V88.0691C84.7058 84.9358 84.1418 82.1381 83.0139 79.7881ZM59.6662 86.6143C57.8616 86.6143 56.3953 85.1596 56.3953 83.3691C56.3953 81.5786 57.8616 80.1239 59.6662 80.1239C61.4709 80.1239 62.9372 81.5786 62.9372 83.3691C63.05 85.1596 61.4709 86.6143 59.6662 86.6143ZM74.1034 86.6143C72.2988 86.6143 70.8325 85.1596 70.8325 83.3691C70.8325 81.5786 72.2988 80.1239 74.1034 80.1239C75.9081 80.1239 77.3744 81.5786 77.3744 83.3691C77.3744 85.1596 75.9081 86.6143 74.1034 86.6143Z" fill="#009FE3"/>
<path d="M82.6756 0H72.6372C71.6221 0 70.7198 0.895238 70.7198 1.90238V39.1667C70.7198 41.069 70.2686 42.5238 69.4791 43.3071C68.6895 44.0905 67.6744 44.5381 66.4337 44.5381C65.193 44.5381 64.1779 44.2024 63.3884 43.3071C62.5988 42.5238 62.1477 41.069 62.1477 39.1667V1.90238C62.1477 0.895238 61.2453 0 60.2302 0H50.1919C49.1767 0 48.2744 0.895238 48.2744 1.90238V40.0619C48.2744 42.6357 48.7256 44.9857 49.7407 47.1119C50.643 49.2381 51.9965 51.1405 53.6884 52.819C55.3802 54.4976 57.2977 55.8405 59.4407 56.7357C61.5837 57.631 63.9523 58.1905 66.4337 58.1905C68.9151 58.1905 71.2837 57.7429 73.5395 56.7357C75.6825 55.8405 77.7128 54.4976 79.4046 52.819C81.0965 51.1405 82.45 49.2381 83.3523 47.1119C84.2546 44.9857 84.7058 42.6357 84.7058 40.0619V1.90238C84.593 0.895238 83.8035 0 82.6756 0Z" fill="#009FE3"/>
<path d="M36.8826 0.447632H26.8442C25.8291 0.447632 24.9268 1.34287 24.9268 2.35001V38.9429C24.9268 40.7333 24.4756 42.0762 23.5733 42.8595C22.5582 43.6429 21.4303 44.0905 20.0768 44.0905C18.7233 44.0905 17.5954 43.6429 16.5803 42.8595C15.6779 42.0762 15.2268 40.8452 15.2268 38.9429V32.7881C15.2268 31.781 14.4372 30.8857 13.3093 30.8857L3.27096 30.6619C2.707 30.6619 2.25584 30.8857 1.91747 31.2214C1.5791 31.5572 1.35352 32.1167 1.35352 32.5643V38.9429C1.35352 42.1881 1.91747 44.9857 3.04538 47.2238C4.17328 49.5738 5.63956 51.4762 7.33142 53.0429C9.13607 54.6095 11.1663 55.8405 13.4221 56.6238C15.6779 57.4071 17.9337 57.8548 20.0768 57.8548C22.3326 57.8548 24.5884 57.4071 26.7314 56.6238C28.9872 55.8405 31.0175 54.6095 32.7093 53.0429C34.514 51.4762 35.9803 49.5738 37.1082 47.2238C38.2361 44.8738 38.8 42.0762 38.8 38.9429V2.35001C38.8 1.23097 37.8977 0.447632 36.8826 0.447632Z" fill="#E30613"/>
<path d="M42.5221 96.7247H25.6035C24.5884 96.7247 23.686 97.62 23.686 98.6271V108.81C23.686 109.034 23.686 109.258 23.686 109.482C23.5733 110.937 23.1221 111.944 22.3326 112.615C21.3174 113.51 20.1895 113.846 18.836 113.846C17.4826 113.846 16.3547 113.399 15.3395 112.615C14.4372 111.832 13.986 110.601 13.986 108.699V87.7724C13.986 85.9819 14.4372 84.639 15.3395 83.8557C16.3547 82.9605 17.4826 82.6248 18.836 82.6248C20.1895 82.6248 21.3174 83.0724 22.3326 83.8557C23.2349 84.639 23.686 85.87 23.686 87.7724V91.2414C23.686 92.2486 24.5884 93.1438 25.6035 93.1438H35.6419C36.657 93.1438 37.5593 92.2486 37.5593 91.2414V87.7724C37.5593 84.7509 36.9953 81.9533 35.8674 79.6033C34.7395 77.2533 33.386 75.239 31.5814 73.5605C31.5814 73.5605 31.5814 73.5605 31.4686 73.5605C29.664 72.1057 27.6337 70.8748 25.3779 70.0914C23.1221 69.3081 20.8663 68.8605 18.7233 68.8605C16.4674 68.8605 14.2116 69.3081 12.0686 70.0914C9.81279 70.8748 7.78256 72.1057 6.0907 73.5605C4.28605 75.1271 2.81977 77.1414 1.69186 79.6033C0.563953 81.9533 0 84.7509 0 87.7724V108.81C0 112.056 0.563953 114.853 1.69186 117.091C2.81977 119.441 4.28605 121.344 6.0907 122.91C7.89535 124.477 9.81279 125.708 12.0686 126.491C14.3244 127.275 16.5802 127.722 18.7233 127.722C20.9791 127.722 23.2349 127.275 25.3779 126.491C27.6337 125.708 29.664 124.477 31.4686 122.91C33.2733 121.344 34.7395 119.441 35.7547 117.091C36.7698 114.965 37.3337 112.391 37.4465 109.594V109.482C37.4465 109.482 37.4465 109.482 37.4465 109.37V109.258H42.2965C43.3116 109.258 44.2139 108.363 44.2139 107.356V98.5152C44.4395 97.5081 43.5372 96.7247 42.5221 96.7247Z" fill="#009FE3"/>
<g style="mix-blend-mode:multiply">
<path d="M86.9617 70.8357C85.4954 69.381 83.1268 69.381 81.7734 70.8357L78.9536 73.6333C77.3745 72.5143 75.6827 71.6191 73.878 70.9476C71.6222 70.1643 69.3664 69.7167 67.2233 69.7167C64.9675 69.7167 62.7117 70.1643 60.5687 70.9476C58.8768 71.5072 57.4106 72.4024 55.9443 73.2976L53.4629 70.8357C51.9966 69.381 49.628 69.381 48.2745 70.8357C46.8082 72.2905 46.8082 74.6405 48.2745 75.9833L51.0943 78.781C50.7559 79.3405 50.5303 79.9 50.192 80.4595C49.064 82.8095 48.5001 85.6072 48.5001 88.6286V93.7762V93.8881V96.9095C48.5001 99.4833 50.5303 101.498 53.1245 101.498H54.7036C57.2978 101.498 59.328 99.4833 59.328 96.9095V93.8881H61.9222V96.9095C61.9222 99.4833 63.9524 101.498 66.5466 101.498H68.1257C70.7199 101.498 72.7501 99.4833 72.7501 96.9095V93.8881H75.3443V96.9095C75.3443 99.4833 77.3745 101.498 79.9687 101.498H81.5478C84.142 101.498 86.1722 99.4833 86.1722 96.9095V93.8881V93.7762V88.6286C86.1722 85.6072 85.6082 82.8095 84.4803 80.4595C84.2547 80.0119 84.142 79.6762 83.9164 79.2286L87.1873 75.9833C88.3152 74.5286 88.3152 72.2905 86.9617 70.8357ZM59.328 86.1667C57.5234 86.1667 55.9443 84.7119 55.9443 82.8095C55.9443 81.0191 57.4106 79.4524 59.328 79.4524C61.2454 79.4524 62.7117 80.9072 62.7117 82.8095C62.5989 84.7119 61.1327 86.1667 59.328 86.1667ZM73.2013 86.1667C71.3966 86.1667 69.8175 84.7119 69.8175 82.8095C69.8175 81.0191 71.2838 79.4524 73.2013 79.4524C75.0059 79.4524 76.585 80.9072 76.585 82.8095C76.585 84.7119 75.1187 86.1667 73.2013 86.1667Z" fill="#FFED00"/>
</g>
</svg>
