<svg xmlns="http://www.w3.org/2000/svg" viewBox="0 0 28.35 28.35"><g id="Capa_2" data-name="Capa 2"><g id="Capa_1-2" data-name="Capa 1"><path d="M28.35,14.17A14.18,14.18,0,1,0,14.17,28.35,14.18,14.18,0,0,0,28.35,14.17Zm-21.81,5a6.3,6.3,0,0,0,.75.05,6.06,6.06,0,0,0,3.89-1.42,3.19,3.19,0,0,1-2.93-2.33,3.81,3.81,0,0,0,.59.07,2.87,2.87,0,0,0,.83-.12,3.31,3.31,0,0,1-2.52-3.29v-.05a3.07,3.07,0,0,0,1.42.44,3.45,3.45,0,0,1-1.39-2.8A3.53,3.53,0,0,1,7.6,8.09a8.86,8.86,0,0,0,6.46,3.56A3.13,3.13,0,0,1,14,10.9a3.16,3.16,0,0,1,3.13-3.27,3.12,3.12,0,0,1,2.28,1.08,5.93,5.93,0,0,0,2-.77A3.17,3.17,0,0,1,20,9.74a6,6,0,0,0,1.8-.49,6.58,6.58,0,0,1-1.56,1.68c0,.14,0,.28,0,.43,0,4.34-3.15,9.36-8.91,9.35A8.45,8.45,0,0,1,6.54,19.21Z"/></g></g></svg>