<svg xmlns="http://www.w3.org/2000/svg" viewBox="0 0 28.35 28.35"><g id="Capa_2" data-name="Capa 2"><g id="Capa_1-2" data-name="Capa 1"><path class="cls-1" d="M0,14.17A14.18,14.18,0,1,1,14.17,28.35,14.18,14.18,0,0,1,0,14.17Zm21.42-3.5A2,2,0,0,0,20.08,9.3,44.66,44.66,0,0,0,14.17,9a44.53,44.53,0,0,0-5.9.32,1.93,1.93,0,0,0-1.34,1.37,20.5,20.5,0,0,0-.32,3.74,20.5,20.5,0,0,0,.32,3.74,1.93,1.93,0,0,0,1.34,1.37,44.53,44.53,0,0,0,5.9.32,44.66,44.66,0,0,0,5.91-.32,2,2,0,0,0,1.34-1.37,21.15,21.15,0,0,0,.31-3.74A21.15,21.15,0,0,0,21.42,10.67Zm-9.65,7.5v-8l6.4,4Z"/></g></g></svg>